<svg xmlns="http://www.w3.org/2000/svg" width="640" height="640" viewBox="0 0 48 48" shape-rendering="crispEdges">
  <rect x="16" y="7" width="15" height="1" fill="#06262b"/>
  <rect x="15" y="8" width="17" height="1" fill="#06262b"/>
  <rect x="12" y="9" width="23" height="1" fill="#06262b"/>
  <rect x="11" y="10" width="2" height="1" fill="#06262b"/>
  <rect x="13" y="10" width="4" height="1" fill="#38cfc1"/>
  <rect x="17" y="10" width="4" height="1" fill="#a8fff0"/>
  <rect x="21" y="10" width="1" height="1" fill="#1aa79c"/>
  <rect x="22" y="10" width="10" height="1" fill="#a8fff0"/>
  <rect x="32" y="10" width="1" height="1" fill="#1aa79c"/>
  <rect x="33" y="10" width="2" height="1" fill="#a8fff0"/>
  <rect x="35" y="10" width="2" height="1" fill="#06262b"/>
  <rect x="39" y="10" width="1" height="1" fill="#1aa79c"/>
  <rect x="10" y="11" width="1" height="1" fill="#06262b"/>
  <rect x="11" y="11" width="1" height="1" fill="#38cfc1"/>
  <rect x="12" y="11" width="4" height="1" fill="#1aa79c"/>
  <rect x="16" y="11" width="1" height="1" fill="#06262b"/>
  <rect x="17" y="11" width="2" height="1" fill="#38cfc1"/>
  <rect x="19" y="11" width="1" height="1" fill="#a8fff0"/>
  <rect x="20" y="11" width="1" height="1" fill="#06262b"/>
  <rect x="21" y="11" width="1" height="1" fill="#a8fff0"/>
  <rect x="22" y="11" width="1" height="1" fill="#1aa79c"/>
  <rect x="23" y="11" width="10" height="1" fill="#a8fff0"/>
  <rect x="33" y="11" width="1" height="1" fill="#1aa79c"/>
  <rect x="34" y="11" width="2" height="1" fill="#a8fff0"/>
  <rect x="36" y="11" width="1" height="1" fill="#06262b"/>
  <rect x="39" y="11" width="2" height="1" fill="#1aa79c"/>
  <rect x="9" y="12" width="1" height="1" fill="#06262b"/>
  <rect x="10" y="12" width="1" height="1" fill="#38cfc1"/>
  <rect x="11" y="12" width="6" height="1" fill="#1aa79c"/>
  <rect x="17" y="12" width="1" height="1" fill="#06262b"/>
  <rect x="18" y="12" width="2" height="1" fill="#38cfc1"/>
  <rect x="20" y="12" width="1" height="1" fill="#06262b"/>
  <rect x="21" y="12" width="1" height="1" fill="#a8fff0"/>
  <rect x="22" y="12" width="1" height="1" fill="#1aa79c"/>
  <rect x="23" y="12" width="10" height="1" fill="#38cfc1"/>
  <rect x="33" y="12" width="1" height="1" fill="#1aa79c"/>
  <rect x="34" y="12" width="2" height="1" fill="#a8fff0"/>
  <rect x="36" y="12" width="2" height="1" fill="#06262b"/>
  <rect x="39" y="12" width="1" height="1" fill="#06262b"/>
  <rect x="9" y="13" width="1" height="1" fill="#06262b"/>
  <rect x="10" y="13" width="7" height="1" fill="#1aa79c"/>
  <rect x="17" y="13" width="1" height="1" fill="#06262b"/>
  <rect x="18" y="13" width="3" height="1" fill="#38cfc1"/>
  <rect x="21" y="13" width="2" height="1" fill="#a8fff0"/>
  <rect x="23" y="13" width="11" height="1" fill="#1aa79c"/>
  <rect x="34" y="13" width="3" height="1" fill="#a8fff0"/>
  <rect x="37" y="13" width="1" height="1" fill="#06262b"/>
  <rect x="39" y="13" width="1" height="1" fill="#06262b"/>
  <rect x="8" y="14" width="1" height="1" fill="#06262b"/>
  <rect x="9" y="14" width="1" height="1" fill="#38cfc1"/>
  <rect x="10" y="14" width="8" height="1" fill="#1aa79c"/>
  <rect x="18" y="14" width="1" height="1" fill="#06262b"/>
  <rect x="19" y="14" width="2" height="1" fill="#a8fff0"/>
  <rect x="21" y="14" width="16" height="1" fill="#38cfc1"/>
  <rect x="37" y="14" width="1" height="1" fill="#a8fff0"/>
  <rect x="38" y="14" width="2" height="1" fill="#06262b"/>
  <rect x="8" y="15" width="1" height="1" fill="#06262b"/>
  <rect x="9" y="15" width="9" height="1" fill="#1aa79c"/>
  <rect x="18" y="15" width="1" height="1" fill="#06262b"/>
  <rect x="19" y="15" width="1" height="1" fill="#a8fff0"/>
  <rect x="20" y="15" width="3" height="1" fill="#38cfc1"/>
  <rect x="23" y="15" width="12" height="1" fill="#06262b"/>
  <rect x="35" y="15" width="3" height="1" fill="#38cfc1"/>
  <rect x="38" y="15" width="2" height="1" fill="#06262b"/>
  <rect x="6" y="16" width="2" height="1" fill="#a8fff0"/>
  <rect x="8" y="16" width="1" height="1" fill="#06262b"/>
  <rect x="9" y="16" width="9" height="1" fill="#1aa79c"/>
  <rect x="18" y="16" width="1" height="1" fill="#06262b"/>
  <rect x="19" y="16" width="1" height="1" fill="#a8fff0"/>
  <rect x="20" y="16" width="2" height="1" fill="#38cfc1"/>
  <rect x="22" y="16" width="14" height="1" fill="#06262b"/>
  <rect x="36" y="16" width="2" height="1" fill="#38cfc1"/>
  <rect x="38" y="16" width="2" height="1" fill="#06262b"/>
  <rect x="6" y="17" width="2" height="1" fill="#06262b"/>
  <rect x="8" y="17" width="1" height="1" fill="#38cfc1"/>
  <rect x="9" y="17" width="2" height="1" fill="#1aa79c"/>
  <rect x="11" y="17" width="4" height="1" fill="#06262b"/>
  <rect x="15" y="17" width="3" height="1" fill="#1aa79c"/>
  <rect x="18" y="17" width="1" height="1" fill="#06262b"/>
  <rect x="19" y="17" width="1" height="1" fill="#a8fff0"/>
  <rect x="20" y="17" width="1" height="1" fill="#38cfc1"/>
  <rect x="21" y="17" width="2" height="1" fill="#06262b"/>
  <rect x="23" y="17" width="10" height="1" fill="#0d5f60"/>
  <rect x="33" y="17" width="1" height="1" fill="#38cfc1"/>
  <rect x="34" y="17" width="1" height="1" fill="#0d5f60"/>
  <rect x="35" y="17" width="2" height="1" fill="#06262b"/>
  <rect x="37" y="17" width="1" height="1" fill="#38cfc1"/>
  <rect x="38" y="17" width="3" height="1" fill="#06262b"/>
  <rect x="6" y="18" width="2" height="1" fill="#06262b"/>
  <rect x="8" y="18" width="2" height="1" fill="#1aa79c"/>
  <rect x="10" y="18" width="6" height="1" fill="#06262b"/>
  <rect x="16" y="18" width="2" height="1" fill="#1aa79c"/>
  <rect x="18" y="18" width="1" height="1" fill="#06262b"/>
  <rect x="19" y="18" width="1" height="1" fill="#a8fff0"/>
  <rect x="20" y="18" width="1" height="1" fill="#38cfc1"/>
  <rect x="21" y="18" width="1" height="1" fill="#06262b"/>
  <rect x="22" y="18" width="12" height="1" fill="#0d5f60"/>
  <rect x="34" y="18" width="1" height="1" fill="#38cfc1"/>
  <rect x="35" y="18" width="1" height="1" fill="#0d5f60"/>
  <rect x="36" y="18" width="1" height="1" fill="#06262b"/>
  <rect x="37" y="18" width="1" height="1" fill="#38cfc1"/>
  <rect x="38" y="18" width="3" height="1" fill="#06262b"/>
  <rect x="6" y="19" width="2" height="1" fill="#06262b"/>
  <rect x="8" y="19" width="2" height="1" fill="#1aa79c"/>
  <rect x="10" y="19" width="1" height="1" fill="#06262b"/>
  <rect x="11" y="19" width="4" height="1" fill="#1aa79c"/>
  <rect x="15" y="19" width="1" height="1" fill="#06262b"/>
  <rect x="16" y="19" width="2" height="1" fill="#1aa79c"/>
  <rect x="18" y="19" width="1" height="1" fill="#06262b"/>
  <rect x="19" y="19" width="1" height="1" fill="#a8fff0"/>
  <rect x="20" y="19" width="1" height="1" fill="#38cfc1"/>
  <rect x="21" y="19" width="1" height="1" fill="#06262b"/>
  <rect x="22" y="19" width="2" height="1" fill="#0d5f60"/>
  <rect x="24" y="19" width="2" height="1" fill="#a8fff0"/>
  <rect x="26" y="19" width="10" height="1" fill="#0d5f60"/>
  <rect x="36" y="19" width="1" height="1" fill="#06262b"/>
  <rect x="37" y="19" width="1" height="1" fill="#38cfc1"/>
  <rect x="38" y="19" width="1" height="1" fill="#06262b"/>
  <rect x="39" y="19" width="1" height="1" fill="#38cfc1"/>
  <rect x="40" y="19" width="2" height="1" fill="#06262b"/>
  <rect x="6" y="20" width="2" height="1" fill="#06262b"/>
  <rect x="8" y="20" width="2" height="1" fill="#1aa79c"/>
  <rect x="10" y="20" width="1" height="1" fill="#06262b"/>
  <rect x="11" y="20" width="4" height="1" fill="#1aa79c"/>
  <rect x="15" y="20" width="4" height="1" fill="#06262b"/>
  <rect x="19" y="20" width="1" height="1" fill="#a8fff0"/>
  <rect x="20" y="20" width="1" height="1" fill="#38cfc1"/>
  <rect x="21" y="20" width="1" height="1" fill="#06262b"/>
  <rect x="22" y="20" width="3" height="1" fill="#0d5f60"/>
  <rect x="25" y="20" width="2" height="1" fill="#a8fff0"/>
  <rect x="27" y="20" width="9" height="1" fill="#0d5f60"/>
  <rect x="36" y="20" width="1" height="1" fill="#06262b"/>
  <rect x="37" y="20" width="1" height="1" fill="#38cfc1"/>
  <rect x="38" y="20" width="1" height="1" fill="#06262b"/>
  <rect x="39" y="20" width="1" height="1" fill="#a8fff0"/>
  <rect x="40" y="20" width="2" height="1" fill="#06262b"/>
  <rect x="6" y="21" width="2" height="1" fill="#06262b"/>
  <rect x="8" y="21" width="2" height="1" fill="#1aa79c"/>
  <rect x="10" y="21" width="1" height="1" fill="#06262b"/>
  <rect x="11" y="21" width="4" height="1" fill="#1aa79c"/>
  <rect x="15" y="21" width="4" height="1" fill="#06262b"/>
  <rect x="19" y="21" width="2" height="1" fill="#38cfc1"/>
  <rect x="21" y="21" width="1" height="1" fill="#06262b"/>
  <rect x="22" y="21" width="3" height="1" fill="#0d5f60"/>
  <rect x="25" y="21" width="2" height="1" fill="#a8fff0"/>
  <rect x="27" y="21" width="9" height="1" fill="#0d5f60"/>
  <rect x="36" y="21" width="1" height="1" fill="#06262b"/>
  <rect x="37" y="21" width="1" height="1" fill="#38cfc1"/>
  <rect x="38" y="21" width="1" height="1" fill="#06262b"/>
  <rect x="39" y="21" width="1" height="1" fill="#a8fff0"/>
  <rect x="40" y="21" width="2" height="1" fill="#06262b"/>
  <rect x="6" y="22" width="2" height="1" fill="#06262b"/>
  <rect x="8" y="22" width="2" height="1" fill="#1aa79c"/>
  <rect x="10" y="22" width="1" height="1" fill="#06262b"/>
  <rect x="11" y="22" width="8" height="1" fill="#1aa79c"/>
  <rect x="19" y="22" width="2" height="1" fill="#38cfc1"/>
  <rect x="21" y="22" width="1" height="1" fill="#06262b"/>
  <rect x="22" y="22" width="4" height="1" fill="#0d5f60"/>
  <rect x="26" y="22" width="2" height="1" fill="#a8fff0"/>
  <rect x="28" y="22" width="8" height="1" fill="#0d5f60"/>
  <rect x="36" y="22" width="1" height="1" fill="#06262b"/>
  <rect x="37" y="22" width="1" height="1" fill="#38cfc1"/>
  <rect x="38" y="22" width="1" height="1" fill="#06262b"/>
  <rect x="39" y="22" width="1" height="1" fill="#38cfc1"/>
  <rect x="40" y="22" width="2" height="1" fill="#06262b"/>
  <rect x="6" y="23" width="2" height="1" fill="#06262b"/>
  <rect x="8" y="23" width="2" height="1" fill="#1aa79c"/>
  <rect x="10" y="23" width="1" height="1" fill="#06262b"/>
  <rect x="11" y="23" width="8" height="1" fill="#1aa79c"/>
  <rect x="19" y="23" width="2" height="1" fill="#38cfc1"/>
  <rect x="21" y="23" width="1" height="1" fill="#06262b"/>
  <rect x="22" y="23" width="5" height="1" fill="#0d5f60"/>
  <rect x="27" y="23" width="2" height="1" fill="#a8fff0"/>
  <rect x="29" y="23" width="7" height="1" fill="#0d5f60"/>
  <rect x="36" y="23" width="1" height="1" fill="#06262b"/>
  <rect x="37" y="23" width="1" height="1" fill="#38cfc1"/>
  <rect x="38" y="23" width="1" height="1" fill="#06262b"/>
  <rect x="39" y="23" width="1" height="1" fill="#38cfc1"/>
  <rect x="40" y="23" width="2" height="1" fill="#06262b"/>
  <rect x="6" y="24" width="2" height="1" fill="#06262b"/>
  <rect x="8" y="24" width="2" height="1" fill="#1aa79c"/>
  <rect x="10" y="24" width="1" height="1" fill="#06262b"/>
  <rect x="11" y="24" width="8" height="1" fill="#1aa79c"/>
  <rect x="19" y="24" width="2" height="1" fill="#38cfc1"/>
  <rect x="21" y="24" width="1" height="1" fill="#06262b"/>
  <rect x="22" y="24" width="4" height="1" fill="#0d5f60"/>
  <rect x="26" y="24" width="2" height="1" fill="#a8fff0"/>
  <rect x="28" y="24" width="8" height="1" fill="#0d5f60"/>
  <rect x="36" y="24" width="1" height="1" fill="#06262b"/>
  <rect x="37" y="24" width="1" height="1" fill="#38cfc1"/>
  <rect x="38" y="24" width="1" height="1" fill="#06262b"/>
  <rect x="39" y="24" width="1" height="1" fill="#38cfc1"/>
  <rect x="40" y="24" width="2" height="1" fill="#06262b"/>
  <rect x="6" y="25" width="2" height="1" fill="#06262b"/>
  <rect x="8" y="25" width="2" height="1" fill="#1aa79c"/>
  <rect x="10" y="25" width="1" height="1" fill="#06262b"/>
  <rect x="11" y="25" width="8" height="1" fill="#1aa79c"/>
  <rect x="19" y="25" width="2" height="1" fill="#38cfc1"/>
  <rect x="21" y="25" width="1" height="1" fill="#06262b"/>
  <rect x="22" y="25" width="3" height="1" fill="#0d5f60"/>
  <rect x="25" y="25" width="2" height="1" fill="#a8fff0"/>
  <rect x="27" y="25" width="9" height="1" fill="#0d5f60"/>
  <rect x="36" y="25" width="1" height="1" fill="#06262b"/>
  <rect x="37" y="25" width="1" height="1" fill="#38cfc1"/>
  <rect x="38" y="25" width="1" height="1" fill="#06262b"/>
  <rect x="39" y="25" width="1" height="1" fill="#1aa79c"/>
  <rect x="40" y="25" width="2" height="1" fill="#06262b"/>
  <rect x="6" y="26" width="2" height="1" fill="#06262b"/>
  <rect x="8" y="26" width="2" height="1" fill="#1aa79c"/>
  <rect x="10" y="26" width="1" height="1" fill="#06262b"/>
  <rect x="11" y="26" width="4" height="1" fill="#1aa79c"/>
  <rect x="15" y="26" width="4" height="1" fill="#06262b"/>
  <rect x="19" y="26" width="1" height="1" fill="#a8fff0"/>
  <rect x="20" y="26" width="1" height="1" fill="#38cfc1"/>
  <rect x="21" y="26" width="1" height="1" fill="#06262b"/>
  <rect x="22" y="26" width="2" height="1" fill="#0d5f60"/>
  <rect x="24" y="26" width="2" height="1" fill="#a8fff0"/>
  <rect x="26" y="26" width="3" height="1" fill="#0d5f60"/>
  <rect x="29" y="26" width="5" height="1" fill="#a8fff0"/>
  <rect x="34" y="26" width="2" height="1" fill="#0d5f60"/>
  <rect x="36" y="26" width="1" height="1" fill="#06262b"/>
  <rect x="37" y="26" width="1" height="1" fill="#38cfc1"/>
  <rect x="38" y="26" width="1" height="1" fill="#06262b"/>
  <rect x="39" y="26" width="1" height="1" fill="#1aa79c"/>
  <rect x="40" y="26" width="2" height="1" fill="#06262b"/>
  <rect x="6" y="27" width="2" height="1" fill="#06262b"/>
  <rect x="8" y="27" width="2" height="1" fill="#1aa79c"/>
  <rect x="10" y="27" width="1" height="1" fill="#06262b"/>
  <rect x="11" y="27" width="4" height="1" fill="#1aa79c"/>
  <rect x="15" y="27" width="1" height="1" fill="#06262b"/>
  <rect x="16" y="27" width="2" height="1" fill="#1aa79c"/>
  <rect x="18" y="27" width="1" height="1" fill="#06262b"/>
  <rect x="19" y="27" width="1" height="1" fill="#a8fff0"/>
  <rect x="20" y="27" width="1" height="1" fill="#38cfc1"/>
  <rect x="21" y="27" width="1" height="1" fill="#06262b"/>
  <rect x="22" y="27" width="14" height="1" fill="#0d5f60"/>
  <rect x="36" y="27" width="1" height="1" fill="#06262b"/>
  <rect x="37" y="27" width="1" height="1" fill="#38cfc1"/>
  <rect x="38" y="27" width="1" height="1" fill="#06262b"/>
  <rect x="39" y="27" width="1" height="1" fill="#1aa79c"/>
  <rect x="40" y="27" width="2" height="1" fill="#06262b"/>
  <rect x="6" y="28" width="2" height="1" fill="#06262b"/>
  <rect x="8" y="28" width="2" height="1" fill="#1aa79c"/>
  <rect x="10" y="28" width="6" height="1" fill="#06262b"/>
  <rect x="16" y="28" width="2" height="1" fill="#1aa79c"/>
  <rect x="18" y="28" width="1" height="1" fill="#06262b"/>
  <rect x="19" y="28" width="1" height="1" fill="#a8fff0"/>
  <rect x="20" y="28" width="1" height="1" fill="#38cfc1"/>
  <rect x="21" y="28" width="1" height="1" fill="#06262b"/>
  <rect x="22" y="28" width="14" height="1" fill="#0d5f60"/>
  <rect x="36" y="28" width="1" height="1" fill="#06262b"/>
  <rect x="37" y="28" width="1" height="1" fill="#38cfc1"/>
  <rect x="38" y="28" width="3" height="1" fill="#06262b"/>
  <rect x="6" y="29" width="2" height="1" fill="#06262b"/>
  <rect x="8" y="29" width="3" height="1" fill="#1aa79c"/>
  <rect x="11" y="29" width="4" height="1" fill="#06262b"/>
  <rect x="15" y="29" width="3" height="1" fill="#1aa79c"/>
  <rect x="18" y="29" width="1" height="1" fill="#06262b"/>
  <rect x="19" y="29" width="1" height="1" fill="#a8fff0"/>
  <rect x="20" y="29" width="1" height="1" fill="#38cfc1"/>
  <rect x="21" y="29" width="2" height="1" fill="#06262b"/>
  <rect x="23" y="29" width="12" height="1" fill="#0d5f60"/>
  <rect x="35" y="29" width="2" height="1" fill="#06262b"/>
  <rect x="37" y="29" width="1" height="1" fill="#38cfc1"/>
  <rect x="38" y="29" width="1" height="1" fill="#06262b"/>
  <rect x="6" y="30" width="2" height="1" fill="#06262b"/>
  <rect x="8" y="30" width="10" height="1" fill="#1aa79c"/>
  <rect x="18" y="30" width="1" height="1" fill="#06262b"/>
  <rect x="19" y="30" width="1" height="1" fill="#a8fff0"/>
  <rect x="20" y="30" width="2" height="1" fill="#38cfc1"/>
  <rect x="22" y="30" width="14" height="1" fill="#06262b"/>
  <rect x="36" y="30" width="2" height="1" fill="#38cfc1"/>
  <rect x="38" y="30" width="1" height="1" fill="#06262b"/>
  <rect x="8" y="31" width="1" height="1" fill="#06262b"/>
  <rect x="9" y="31" width="9" height="1" fill="#1aa79c"/>
  <rect x="18" y="31" width="1" height="1" fill="#06262b"/>
  <rect x="19" y="31" width="1" height="1" fill="#a8fff0"/>
  <rect x="20" y="31" width="2" height="1" fill="#38cfc1"/>
  <rect x="22" y="31" width="14" height="1" fill="#06262b"/>
  <rect x="36" y="31" width="2" height="1" fill="#38cfc1"/>
  <rect x="38" y="31" width="1" height="1" fill="#06262b"/>
  <rect x="8" y="32" width="1" height="1" fill="#06262b"/>
  <rect x="9" y="32" width="9" height="1" fill="#1aa79c"/>
  <rect x="18" y="32" width="1" height="1" fill="#06262b"/>
  <rect x="19" y="32" width="2" height="1" fill="#1aa79c"/>
  <rect x="21" y="32" width="2" height="1" fill="#38cfc1"/>
  <rect x="23" y="32" width="11" height="1" fill="#a8fff0"/>
  <rect x="34" y="32" width="1" height="1" fill="#0d5f60"/>
  <rect x="35" y="32" width="2" height="1" fill="#38cfc1"/>
  <rect x="37" y="32" width="1" height="1" fill="#1aa79c"/>
  <rect x="38" y="32" width="1" height="1" fill="#06262b"/>
  <rect x="9" y="33" width="1" height="1" fill="#06262b"/>
  <rect x="10" y="33" width="7" height="1" fill="#1aa79c"/>
  <rect x="17" y="33" width="1" height="1" fill="#06262b"/>
  <rect x="18" y="33" width="2" height="1" fill="#1aa79c"/>
  <rect x="20" y="33" width="2" height="1" fill="#06262b"/>
  <rect x="22" y="33" width="12" height="1" fill="#38cfc1"/>
  <rect x="34" y="33" width="1" height="1" fill="#0d5f60"/>
  <rect x="35" y="33" width="1" height="1" fill="#38cfc1"/>
  <rect x="36" y="33" width="1" height="1" fill="#1aa79c"/>
  <rect x="37" y="33" width="1" height="1" fill="#06262b"/>
  <rect x="9" y="34" width="2" height="1" fill="#06262b"/>
  <rect x="11" y="34" width="5" height="1" fill="#1aa79c"/>
  <rect x="16" y="34" width="1" height="1" fill="#06262b"/>
  <rect x="17" y="34" width="5" height="1" fill="#1aa79c"/>
  <rect x="22" y="34" width="1" height="1" fill="#0d5f60"/>
  <rect x="23" y="34" width="10" height="1" fill="#1aa79c"/>
  <rect x="33" y="34" width="1" height="1" fill="#0d5f60"/>
  <rect x="34" y="34" width="1" height="1" fill="#1aa79c"/>
  <rect x="35" y="34" width="2" height="1" fill="#06262b"/>
  <rect x="10" y="35" width="26" height="1" fill="#06262b"/>
  <rect x="10" y="36" width="6" height="1" fill="#38cfc1"/>
  <rect x="16" y="36" width="16" height="1" fill="#06262b"/>
  <rect x="32" y="36" width="4" height="1" fill="#38cfc1"/>
  <rect x="16" y="37" width="16" height="1" fill="#06262b"/>
  <rect x="16" y="38" width="1" height="1" fill="#06262b"/>
  <rect x="17" y="38" width="5" height="1" fill="#1aa79c"/>
  <rect x="22" y="38" width="1" height="1" fill="#38cfc1"/>
  <rect x="23" y="38" width="1" height="1" fill="#06262b"/>
  <rect x="24" y="38" width="1" height="1" fill="#38cfc1"/>
  <rect x="25" y="38" width="1" height="1" fill="#06262b"/>
  <rect x="26" y="38" width="1" height="1" fill="#38cfc1"/>
  <rect x="27" y="38" width="1" height="1" fill="#06262b"/>
  <rect x="28" y="38" width="2" height="1" fill="#38cfc1"/>
  <rect x="30" y="38" width="2" height="1" fill="#06262b"/>
  <rect x="17" y="39" width="2" height="1" fill="#06262b"/>
  <rect x="19" y="39" width="3" height="1" fill="#1aa79c"/>
  <rect x="22" y="39" width="7" height="1" fill="#38cfc1"/>
  <rect x="29" y="39" width="2" height="1" fill="#06262b"/>
  <rect x="18" y="40" width="12" height="1" fill="#06262b"/>
</svg>